# xmcd
#
# Track frame offsets:
#	150
#	21496
#	44601
#	58806
#	73898
#	98743
#	121063
#	141794
#
# Disc length: 2120 seconds
#
# Revision: 16
# Processed by: cddbd v1.5.2PL0 Copyright (c) Steve Scherf et al.
# Submitted via: Jack! The Knife 20 Magnifico
#
DISCID=76084608
DTITLE=Running Wild - Under Jolly Roger
DYEAR=1987
DGENRE=Metal
TTITLE0=Under Jolly Roger
TTITLE1=Beggar's Night
TTITLE2=Diamonds Of The Black Chest
TTITLE3=War In The Gutter
TTITLE4=Raise Your Fist
TTITLE5=Land Of Ice
TTITLE6=Raw Ride
TTITLE7=Merciless Game
EXTD=Running Wild
EXTT0=Rolf Kasparek
EXTT1=Rolf Kasparek
EXTT2=Rolf Kasparek
EXTT3=Rolf Kasparek
EXTT4=Rolf Kasparek
EXTT5=Rolf Kasparek
EXTT6=Rolf Kasparek
EXTT7=Rolf Kasparek
PLAYORDER=
